<?xml version="1.0" encoding="utf-8"?>
<!-- Generator: Adobe Illustrator 18.1.1, SVG Export Plug-In . SVG Version: 6.00 Build 0)  -->
<svg version="1.1" id="Calque_1" xmlns="http://www.w3.org/2000/svg" xmlns:xlink="http://www.w3.org/1999/xlink" x="0px" y="0px"
	 viewBox="0 0 600 265.1" enable-background="new 0 0 600 265.1" xml:space="preserve">
<g>
	<g id="Bulle">
		<path fill="#DE6F7E" d="M224,117.5l9.6-15.6c0.6-0.9,1.8-1.2,2.8-0.7l6.8,4.2c0.9,0.6,2.2,0.3,2.8-0.7l12.4-20.2
			c0.6-0.9,1.8-1.2,2.8-0.7l4.8,2.9c0.9,0.6,2.2,0.3,2.8-0.7l20.2-32.8c0.6-0.9,1.8-1.2,2.8-0.7l9.9,6.1c1.4,0.9,3.3,0.4,4.1-1
			l23.4-38.2l-2.3-9.8c-1.6-6.8-8.5-11.1-15.3-9.4L165,35.3c-7.4,1.8-12,9.2-10.2,16.6l18.7,78.1c1.8,7.4,9.2,12,16.6,10.2l7.9-1.9
			c9.5-14.3,13.1-20.5,14.5-23.1c0.5-1,1.8-1.4,2.8-0.7l5.9,3.7C222.2,118.8,223.4,118.5,224,117.5z"/>
		<path fill="#ADD6A5" d="M304.5,69.9l-9.6-6.7c-0.9-0.6-2.2-0.4-2.8,0.5l-21.9,31.7c-0.6,0.9-1.9,1.1-2.8,0.5l-4.6-3.2
			c-0.9-0.6-2.2-0.4-2.8,0.5l-13.5,19.5c-0.6,0.9-1.9,1.1-2.8,0.5l-6.5-4.5c-0.9-0.6-2.2-0.4-2.8,0.5l-10.4,15
			c-0.6,0.9-1.9,1.1-2.8,0.5l-5.3-3.9c-0.9-0.7-2.2-0.5-2.9,0.5c-1.6,2.5-5.5,8.4-15.1,22.3l3.9,21.4l15.3-19.1
			c3.3-4.1,7.5-6.3,12.6-7.3l106.6-19.5c7.2-1.3,12-8.3,10.7-15.5L334,32.2l-25.4,36.9C307.7,70.5,305.8,70.8,304.5,69.9z"/>
	</g>
	<g id="speech">
		<path fill="#632A4B" d="M0,189.3c0-7,2.5-12.3,7.4-16c4.9-3.7,11-5.6,18.3-5.6c6.9,0,13.2,1.7,18.9,4.9v12.7
			c-4.7-2.2-10-3.3-16-3.3c-8,0-11.9,1.9-11.9,5.8c0,1.9,1.1,3.5,3.4,4.6c2.3,1.1,5,2.1,8.3,2.9c3.3,0.8,6.5,2,9.7,3.4
			c3.2,1.4,6,3.8,8.3,7.2c2.3,3.4,3.4,7.7,3.4,13c0,5.8-2.4,10.6-7.1,14.4c-4.7,3.8-11,5.7-18.7,5.7c-8,0-15.3-1.9-22-5.6v-14.8
			c6.1,4.1,12.6,6.1,19.6,6.1c4.8,0,7.9-0.6,9.4-1.7c1.4-1.1,2.2-2.8,2.2-5c0-2-1.1-3.7-3.4-4.9c-2.3-1.2-5-2.3-8.3-3.3
			c-3.2-0.9-6.5-2-9.7-3.3c-3.2-1.3-6-3.4-8.3-6.3C1.1,197.5,0,193.8,0,189.3z"/>
		<path fill="#632A4B" d="M62.8,263.7v-72.6c0-6.4,2.4-11.8,7.2-16.4c4.8-4.6,12.1-6.9,22-6.9c2.3,0,4.6,0.2,6.8,0.5
			c2.3,0.4,4.9,1.3,8,2.8c3.1,1.5,5.7,3.5,7.9,6c2.2,2.4,4.1,6,5.7,10.7c1.6,4.7,2.4,10.2,2.4,16.4c0,11.3-2.8,20.1-8.3,26.1
			c-5.5,6.1-13.5,9.1-23.8,9.1c-3.9,0-7.7-0.4-11.4-1.2v25.4H62.8z M79.5,225.7c3.8,0.5,7.3,0.8,10.2,0.8c5.4,0,9.5-1.6,12.3-4.7
			c2.8-3.1,4.2-8.7,4.2-16.6c0-8.1-1.1-14-3.2-17.6c-2.1-3.6-5.8-5.4-11.1-5.4c-8.3,0-12.5,2.5-12.5,7.5V225.7z"/>
		<path fill="#632A4B" d="M134.6,201.3c1-11.1,4.3-19.7,9.9-25.8c5.5-6.2,13.7-8.7,24.4-7.7c10.1,0.9,17.5,4.9,22.1,11.8
			c4.6,6.9,6.5,15.1,5.6,24.5c-0.4,3.9-0.7,6.7-1.1,8.5l-44.7-4.2c-0.1,6,1.3,10.2,4.2,12.5c2.9,2.3,6.9,3.7,11.9,4.2
			c8.1,0.8,16.1-0.3,24-3.1l-1.2,13.4c-8,3.4-16.9,4.7-26.6,3.8c-3.1-0.3-5.9-0.8-8.6-1.5c-2.7-0.7-5.4-2-8.1-3.9
			c-2.7-1.8-5.1-4.1-6.9-6.7s-3.3-6.1-4.2-10.6C134.3,211.9,134.1,206.9,134.6,201.3z M151.8,196.9l27.8,2.6c0-4.8-1-8.9-3.1-12.4
			c-2.1-3.5-5.2-5.4-9.3-5.8c-4.1-0.4-7.5,0.6-10.1,3.1C154.6,186.8,152.8,191,151.8,196.9z"/>
		<path fill="#632A4B" d="M207.6,207.2c-1.1-11.1,0.5-20.1,4.8-27.2c4.3-7.1,11.8-11.2,22.5-12.2c10.1-1,18.1,1.5,23.9,7.4
			c5.8,5.9,9.2,13.6,10.1,23c0.4,3.9,0.6,6.7,0.6,8.6l-44.7,4.4c1,5.9,3.2,9.8,6.5,11.5c3.3,1.7,7.5,2.3,12.5,1.8
			c8.1-0.8,15.7-3.4,22.9-7.7l1.3,13.4c-7.2,4.9-15.7,7.8-25.4,8.8c-3.1,0.3-6,0.3-8.7,0.1s-5.6-1-8.7-2.3c-3-1.3-5.7-3-8.1-5.3
			s-4.4-5.4-6.1-9.6C209.3,217.7,208.1,212.8,207.6,207.2z M223.6,199.6l27.8-2.7c-0.9-4.7-2.7-8.5-5.4-11.6
			c-2.7-3-6.1-4.3-10.2-3.9c-4.1,0.4-7.2,2.1-9.3,4.9C224.4,189.2,223.4,193.6,223.6,199.6z"/>
		<path fill="#632A4B" d="M281.3,204.7c-0.6-11.5,1.8-20.5,7.1-26.9c5.3-6.4,13.3-9.9,23.8-10.4c6.8-0.3,13.5,0.6,20.2,2.9l0.7,13.7
			c-5.6-1.9-11.4-2.8-17.4-2.5c-6.4,0.3-11,2-14,5.1c-2.9,3.1-4.2,8.8-3.8,17.2c0.4,8.3,2.2,13.9,5.5,16.7c3.2,2.8,8,4.1,14.4,3.7
			c5.7-0.3,11.4-1.7,17-4.3l0.7,13.7c-6.4,3-13,4.7-19.8,5.1c-10.5,0.5-18.7-2.1-24.7-8C285.1,224.9,281.9,216.2,281.3,204.7z"/>
		<path fill="#632A4B" d="M347,238v-95.6h16.7V170c4-1.5,8.6-2.3,13.9-2.3c9.7,0,17.2,2.5,22.6,7.6c5.4,5,8.2,12.1,8.2,21.2V238
			h-16.7v-43c0-1.9-0.2-3.4-0.5-4.6c-0.3-1.2-1-2.5-2.1-3.9c-1.1-1.4-2.8-2.4-5.2-3.1c-2.4-0.7-5.5-1-9.2-1c-4.3,0-8,0.7-11.1,2V238
			H347z"/>
	</g>
	<g id="log">
		<path fill="#DE6F7E" d="M426.1,238v-95.6h16.7V238H426.1z"/>
		<path fill="#DE6F7E" d="M469.6,229.9c-5.6-6.1-8.5-15-8.5-26.4c0-11.5,2.8-20.3,8.5-26.4c5.6-6.1,13.7-9.2,24.3-9.2
			c10.6,0,18.6,3.1,24.3,9.2c5.6,6.1,8.5,15,8.5,26.4c0,11.5-2.8,20.3-8.5,26.4c-5.6,6.1-13.7,9.2-24.3,9.2
			C483.3,239.1,475.2,236.1,469.6,229.9z M481.7,186.1c-2.6,3-4,8.8-4,17.5c0,8.6,1.3,14.4,4,17.4c2.6,3,6.7,4.5,12.2,4.5
			c5.5,0,9.5-1.5,12.1-4.5c2.6-3,3.9-8.8,3.9-17.4c0-8.6-1.3-14.4-3.9-17.5c-2.6-3-6.7-4.5-12.1-4.5
			C488.4,181.5,484.4,183,481.7,186.1z"/>
		<path fill="#DE6F7E" d="M541.6,203.2c0-6.1,0.8-11.4,2.4-16c1.6-4.5,3.5-8,5.6-10.4c2.2-2.4,4.7-4.3,7.7-5.8
			c3-1.5,5.5-2.4,7.8-2.8c2.2-0.4,4.4-0.5,6.6-0.5c9.7,0,16.9,2.2,21.5,6.6c4.6,4.4,6.9,9.8,6.9,16.1v49.3c0,2.2-0.2,4.3-0.6,6.3
			c-0.4,2-1.3,4.2-2.6,6.6c-1.3,2.4-3.1,4.5-5.2,6.2c-2.2,1.7-5.2,3.2-9.2,4.4c-3.9,1.2-8.5,1.8-13.7,1.8c-7.3,0-14-0.9-20-2.8v-15
			c5.6,1.9,11.6,2.8,18.1,2.8c3.9,0,7-0.3,9.5-0.9c2.4-0.6,4.1-1.5,5-2.7c0.9-1.2,1.4-2.3,1.7-3.2c0.2-0.9,0.3-2.1,0.3-3.6V236
			c-3.7,0.7-7.2,1.1-10.5,1.2c-10.1,0-17.8-2.9-23.2-8.8C544.3,222.6,541.6,214.2,541.6,203.2z M558.2,203.5c0,7.7,1.2,13,3.7,15.8
			c2.5,2.8,6.3,4.2,11.4,4.2c3.4,0,6.7-0.3,10-0.9v-32.2c0-5.1-3.8-7.7-11.5-7.7c-0.1,0-0.2,0-0.2,0c-4.4,0-7.8,1.6-10,4.8
			C559.4,190.7,558.2,196.1,558.2,203.5z"/>
		<path fill="#DE6F7E" d="M528.6,235.9c-8.9,9.7-17.6,15.4-34.6,15.4c-17,0-25.7-5.7-34.6-15.4l-6.7,6.1
			c10.6,11.5,21.9,20.4,41.3,20.4c19.4,0,30.7-8.8,41.3-20.4L528.6,235.9z"/>
	</g>
	<g>
		<linearGradient id="SVGID_1_" gradientUnits="userSpaceOnUse" x1="221.438" y1="8.6984" x2="266.9283" y2="106.2527">
			<stop  offset="0" style="stop-color:#FFFFFF"/>
			<stop  offset="0.1877" style="stop-color:#CBCBCB"/>
			<stop  offset="0.5909" style="stop-color:#5F5F5F"/>
			<stop  offset="0.8701" style="stop-color:#1B1B1B"/>
			<stop  offset="1" style="stop-color:#000000"/>
		</linearGradient>
		<path opacity="0.13" fill="url(#SVGID_1_)" d="M224,117.5l9.6-15.6c0.6-0.9,1.8-1.2,2.8-0.7l6.8,4.2c0.9,0.6,2.2,0.3,2.8-0.7
			l12.4-20.2c0.6-0.9,1.8-1.2,2.8-0.7l4.8,2.9c0.9,0.6,2.2,0.3,2.8-0.7l20.2-32.8c0.6-0.9,1.8-1.2,2.8-0.7l9.9,6.1
			c1.4,0.9,3.3,0.4,4.1-1l23.4-38.2l-2.3-9.8c-1.6-6.8-8.5-11.1-15.3-9.4L165,35.3c-7.4,1.8-12,9.2-10.2,16.6l18.7,78.1
			c1.8,7.4,9.2,12,16.6,10.2l7.9-1.9c9.5-14.3,13.1-20.5,14.5-23.1c0.5-1,1.8-1.4,2.8-0.7l5.9,3.7
			C222.2,118.8,223.4,118.5,224,117.5z"/>
		<linearGradient id="SVGID_2_" gradientUnits="userSpaceOnUse" x1="254.3168" y1="69.359" x2="288.2841" y2="142.2022">
			<stop  offset="0" style="stop-color:#FFFFFF"/>
			<stop  offset="0.1877" style="stop-color:#CBCBCB"/>
			<stop  offset="0.5909" style="stop-color:#5F5F5F"/>
			<stop  offset="0.8701" style="stop-color:#1B1B1B"/>
			<stop  offset="1" style="stop-color:#000000"/>
		</linearGradient>
		<path opacity="0.13" fill="url(#SVGID_2_)" d="M304.5,69.9l-9.6-6.7c-0.9-0.6-2.2-0.4-2.8,0.5l-21.9,31.7
			c-0.6,0.9-1.9,1.1-2.8,0.5l-4.6-3.2c-0.9-0.6-2.2-0.4-2.8,0.5l-13.5,19.5c-0.6,0.9-1.9,1.1-2.8,0.5l-6.5-4.5
			c-0.9-0.6-2.2-0.4-2.8,0.5l-10.4,15c-0.6,0.9-1.9,1.1-2.8,0.5l-5.3-3.9c-0.9-0.7-2.2-0.5-2.9,0.5c-1.6,2.5-5.5,8.4-15.1,22.3
			l3.9,21.4l15.3-19.1c3.3-4.1,7.5-6.3,12.6-7.3l106.6-19.5c7.2-1.3,12-8.3,10.7-15.5L334,32.2l-25.4,36.9
			C307.7,70.5,305.8,70.8,304.5,69.9z"/>
	</g>
	<linearGradient id="SVGID_3_" gradientUnits="userSpaceOnUse" x1="8.7855" y1="171.978" x2="38.6514" y2="236.0255">
		<stop  offset="0" style="stop-color:#FFFFFF"/>
		<stop  offset="0.1877" style="stop-color:#CBCBCB"/>
		<stop  offset="0.5909" style="stop-color:#5F5F5F"/>
		<stop  offset="0.8701" style="stop-color:#1B1B1B"/>
		<stop  offset="1" style="stop-color:#000000"/>
	</linearGradient>
	<path opacity="0.13" fill="url(#SVGID_3_)" d="M0,189.3c0-7,2.5-12.3,7.4-16c4.9-3.7,11-5.6,18.3-5.6c6.9,0,13.2,1.7,18.9,4.9v12.7
		c-4.7-2.2-10-3.3-16-3.3c-8,0-11.9,1.9-11.9,5.8c0,1.9,1.1,3.5,3.4,4.6c2.3,1.1,5,2.1,8.3,2.9c3.3,0.8,6.5,2,9.7,3.4
		c3.2,1.4,6,3.8,8.3,7.2c2.3,3.4,3.4,7.7,3.4,13c0,5.8-2.4,10.6-7.1,14.4c-4.7,3.8-11,5.7-18.7,5.7c-8,0-15.3-1.9-22-5.6v-14.8
		c6.1,4.1,12.6,6.1,19.6,6.1c4.8,0,7.9-0.6,9.4-1.7c1.4-1.1,2.2-2.8,2.2-5c0-2-1.1-3.7-3.4-4.9c-2.3-1.2-5-2.3-8.3-3.3
		c-3.2-0.9-6.5-2-9.7-3.3c-3.2-1.3-6-3.4-8.3-6.3C1.1,197.5,0,193.8,0,189.3z"/>
	<linearGradient id="SVGID_4_" gradientUnits="userSpaceOnUse" x1="67.8924" y1="174.4841" x2="104.1531" y2="252.2454">
		<stop  offset="0" style="stop-color:#FFFFFF"/>
		<stop  offset="0.1877" style="stop-color:#CBCBCB"/>
		<stop  offset="0.5909" style="stop-color:#5F5F5F"/>
		<stop  offset="0.8701" style="stop-color:#1B1B1B"/>
		<stop  offset="1" style="stop-color:#000000"/>
	</linearGradient>
	<path opacity="0.13" fill="url(#SVGID_4_)" d="M62.8,263.7v-72.6c0-6.4,2.4-11.8,7.2-16.4c4.8-4.6,12.1-6.9,22-6.9
		c2.3,0,4.6,0.2,6.8,0.5c2.3,0.4,4.9,1.3,8,2.8c3.1,1.5,5.7,3.5,7.9,6c2.2,2.4,4.1,6,5.7,10.7c1.6,4.7,2.4,10.2,2.4,16.4
		c0,11.3-2.8,20.1-8.3,26.1c-5.5,6.1-13.5,9.1-23.8,9.1c-3.9,0-7.7-0.4-11.4-1.2v25.4H62.8z M79.5,225.7c3.8,0.5,7.3,0.8,10.2,0.8
		c5.4,0,9.5-1.6,12.3-4.7c2.8-3.1,4.2-8.7,4.2-16.6c0-8.1-1.1-14-3.2-17.6c-2.1-3.6-5.8-5.4-11.1-5.4c-8.3,0-12.5,2.5-12.5,7.5
		V225.7z"/>
	
		<linearGradient id="SVGID_5_" gradientUnits="userSpaceOnUse" x1="150.1924" y1="170.6713" x2="181.2466" y2="237.2673" gradientTransform="matrix(0.9809 0.1944 -0.1944 0.9809 42.6807 -28.2889)">
		<stop  offset="0" style="stop-color:#FFFFFF"/>
		<stop  offset="0.1877" style="stop-color:#CBCBCB"/>
		<stop  offset="0.5909" style="stop-color:#5F5F5F"/>
		<stop  offset="0.8701" style="stop-color:#1B1B1B"/>
		<stop  offset="1" style="stop-color:#000000"/>
	</linearGradient>
	<path opacity="0.13" fill="url(#SVGID_5_)" d="M134.6,201.3c1-11.1,4.3-19.7,9.9-25.8c5.5-6.2,13.7-8.7,24.4-7.7
		c10.1,0.9,17.5,4.9,22.1,11.8c4.6,6.9,6.4,15.1,5.6,24.5c-0.4,3.9-0.7,6.7-1.1,8.5l-44.7-4.2c-0.1,6,1.3,10.2,4.2,12.5
		c2.9,2.3,6.9,3.7,11.9,4.2c8.1,0.8,16.1-0.3,24-3.1l-1.3,13.4c-8,3.4-16.9,4.7-26.6,3.8c-3.1-0.3-5.9-0.8-8.6-1.6
		c-2.7-0.7-5.4-2-8.1-3.9c-2.7-1.8-5.1-4.1-6.9-6.7c-1.9-2.6-3.3-6.1-4.2-10.6C134.3,211.9,134.1,206.9,134.6,201.3z M151.8,196.9
		l27.8,2.6c0-4.8-1-8.9-3.1-12.4c-2.1-3.5-5.2-5.4-9.3-5.8c-4.1-0.4-7.5,0.6-10.1,3.1C154.6,186.8,152.8,191,151.8,196.9z"/>
	
		<linearGradient id="SVGID_6_" gradientUnits="userSpaceOnUse" x1="222.9062" y1="170.8484" x2="254.6846" y2="238.9975" gradientTransform="matrix(0.9785 -0.2061 0.2061 0.9785 -36.8 53.4866)">
		<stop  offset="0" style="stop-color:#FFFFFF"/>
		<stop  offset="0.1877" style="stop-color:#CBCBCB"/>
		<stop  offset="0.5909" style="stop-color:#5F5F5F"/>
		<stop  offset="0.8701" style="stop-color:#1B1B1B"/>
		<stop  offset="1" style="stop-color:#000000"/>
	</linearGradient>
	<path opacity="0.13" fill="url(#SVGID_6_)" d="M207.6,207.2c-1.1-11.1,0.5-20.1,4.8-27.2c4.3-7.1,11.8-11.2,22.5-12.2
		c10.1-1,18.1,1.5,23.9,7.4c5.8,5.9,9.2,13.6,10.1,23c0.4,3.9,0.6,6.7,0.6,8.6l-44.7,4.4c1,5.9,3.2,9.8,6.5,11.5
		c3.3,1.7,7.5,2.3,12.5,1.8c8.1-0.8,15.7-3.3,22.9-7.6l1.3,13.4c-7.2,4.9-15.7,7.8-25.4,8.8c-3.1,0.3-6,0.3-8.7,0.1
		c-2.7-0.2-5.6-1-8.7-2.3c-3-1.3-5.7-3-8.1-5.3c-2.3-2.2-4.4-5.4-6.1-9.6C209.3,217.7,208.1,212.8,207.6,207.2z M223.6,199.6
		l27.8-2.7c-0.9-4.7-2.7-8.5-5.4-11.6c-2.7-3-6.1-4.3-10.2-3.9c-4.1,0.4-7.2,2.1-9.3,4.9C224.4,189.2,223.4,193.6,223.6,199.6z"/>
	<linearGradient id="SVGID_7_" gradientUnits="userSpaceOnUse" x1="297.0078" y1="171.0469" x2="327.8938" y2="237.282">
		<stop  offset="0" style="stop-color:#FFFFFF"/>
		<stop  offset="0.1877" style="stop-color:#CBCBCB"/>
		<stop  offset="0.5909" style="stop-color:#5F5F5F"/>
		<stop  offset="0.8701" style="stop-color:#1B1B1B"/>
		<stop  offset="1" style="stop-color:#000000"/>
	</linearGradient>
	<path opacity="0.13" fill="url(#SVGID_7_)" d="M281.3,204.7c-0.6-11.5,1.8-20.5,7.1-26.9c5.3-6.4,13.3-9.9,23.8-10.4
		c6.8-0.3,13.5,0.6,20.2,2.9l0.7,13.7c-5.6-1.9-11.4-2.8-17.4-2.5c-6.4,0.3-11,2-14,5.1c-2.9,3.1-4.2,8.8-3.8,17.2
		c0.4,8.3,2.2,13.9,5.5,16.7c3.2,2.8,8,4.1,14.4,3.7c5.7-0.3,11.4-1.7,17-4.3l0.7,13.7c-6.4,3-13,4.7-19.8,5.1
		c-10.5,0.5-18.7-2.1-24.7-8C285.1,224.9,281.9,216.2,281.3,204.7z"/>
	<linearGradient id="SVGID_8_" gradientUnits="userSpaceOnUse" x1="345.0344" y1="143.3251" x2="392.6214" y2="245.3757">
		<stop  offset="0" style="stop-color:#FFFFFF"/>
		<stop  offset="0.1877" style="stop-color:#CBCBCB"/>
		<stop  offset="0.5909" style="stop-color:#5F5F5F"/>
		<stop  offset="0.8701" style="stop-color:#1B1B1B"/>
		<stop  offset="1" style="stop-color:#000000"/>
	</linearGradient>
	<path opacity="0.13" fill="url(#SVGID_8_)" d="M347,238v-95.6h16.7V170c4-1.5,8.6-2.3,13.9-2.3c9.7,0,17.2,2.5,22.6,7.6
		c5.4,5,8.2,12.1,8.2,21.2V238h-16.7v-43c0-1.9-0.2-3.4-0.5-4.6c-0.3-1.2-1-2.5-2.1-3.9c-1.1-1.4-2.8-2.4-5.2-3.1
		c-2.4-0.7-5.5-1-9.2-1c-4.3,0-8,0.7-11.1,2V238H347z"/>
	<linearGradient id="SVGID_9_" gradientUnits="userSpaceOnUse" x1="414.5925" y1="147.7583" x2="454.2017" y2="232.7006">
		<stop  offset="0" style="stop-color:#FFFFFF"/>
		<stop  offset="0.1877" style="stop-color:#CBCBCB"/>
		<stop  offset="0.5909" style="stop-color:#5F5F5F"/>
		<stop  offset="0.8701" style="stop-color:#1B1B1B"/>
		<stop  offset="1" style="stop-color:#000000"/>
	</linearGradient>
	<path opacity="0.13" fill="url(#SVGID_9_)" d="M426.1,238v-95.6h16.7V238H426.1z"/>
	<linearGradient id="SVGID_10_" gradientUnits="userSpaceOnUse" x1="478.5685" y1="170.659" x2="509.1783" y2="236.3021">
		<stop  offset="0" style="stop-color:#FFFFFF"/>
		<stop  offset="0.1877" style="stop-color:#CBCBCB"/>
		<stop  offset="0.5909" style="stop-color:#5F5F5F"/>
		<stop  offset="0.8701" style="stop-color:#1B1B1B"/>
		<stop  offset="1" style="stop-color:#000000"/>
	</linearGradient>
	<path opacity="0.13" fill="url(#SVGID_10_)" d="M469.6,229.9c-5.6-6.1-8.5-15-8.5-26.4c0-11.5,2.8-20.3,8.5-26.4
		c5.6-6.1,13.7-9.2,24.3-9.2c10.6,0,18.6,3.1,24.3,9.2c5.6,6.1,8.5,15,8.5,26.4c0,11.5-2.8,20.3-8.5,26.4
		c-5.6,6.1-13.7,9.2-24.3,9.2C483.3,239.1,475.2,236.1,469.6,229.9z M481.7,186.1c-2.6,3-4,8.8-4,17.5c0,8.6,1.3,14.4,4,17.4
		c2.6,3,6.7,4.5,12.2,4.5c5.5,0,9.5-1.5,12.1-4.5c2.6-3,3.9-8.8,3.9-17.4c0-8.6-1.3-14.4-3.9-17.5c-2.6-3-6.7-4.5-12.1-4.5
		C488.4,181.5,484.4,183,481.7,186.1z"/>
	<linearGradient id="SVGID_11_" gradientUnits="userSpaceOnUse" x1="551.0839" y1="173.8754" x2="591.1083" y2="259.7081">
		<stop  offset="0" style="stop-color:#FFFFFF"/>
		<stop  offset="0.1877" style="stop-color:#CBCBCB"/>
		<stop  offset="0.5909" style="stop-color:#5F5F5F"/>
		<stop  offset="0.8701" style="stop-color:#1B1B1B"/>
		<stop  offset="1" style="stop-color:#000000"/>
	</linearGradient>
	<path opacity="0.13" fill="url(#SVGID_11_)" d="M541.6,203.2c0-6.1,0.8-11.4,2.4-16c1.6-4.5,3.5-8,5.6-10.4
		c2.2-2.4,4.7-4.3,7.7-5.8c3-1.5,5.5-2.4,7.8-2.8c2.2-0.4,4.4-0.5,6.6-0.5c9.7,0,16.9,2.2,21.5,6.6c4.6,4.4,6.9,9.8,6.9,16.1v49.3
		c0,2.2-0.2,4.3-0.6,6.3c-0.4,2-1.3,4.2-2.6,6.6c-1.3,2.4-3.1,4.5-5.2,6.2c-2.2,1.7-5.2,3.2-9.2,4.4c-3.9,1.2-8.5,1.8-13.7,1.8
		c-7.3,0-14-0.9-20-2.8v-15c5.6,1.9,11.6,2.8,18.1,2.8c3.9,0,7-0.3,9.5-0.9c2.4-0.6,4.1-1.5,5-2.7c0.9-1.2,1.4-2.3,1.7-3.2
		c0.2-0.9,0.3-2.1,0.3-3.6V236c-3.7,0.7-7.2,1.1-10.5,1.2c-10.1,0-17.8-2.9-23.2-8.8C544.3,222.6,541.6,214.2,541.6,203.2z
		 M558.2,203.5c0,7.7,1.2,13,3.7,15.8c2.5,2.8,6.3,4.2,11.4,4.2c3.4,0,6.7-0.3,10-0.9v-32.2c0-5.1-3.8-7.7-11.5-7.7
		c-0.1,0-0.2,0-0.2,0c-4.4,0-7.8,1.6-10,4.8C559.4,190.7,558.2,196.1,558.2,203.5z"/>
	<linearGradient id="SVGID_12_" gradientUnits="userSpaceOnUse" x1="452.6441" y1="249.1642" x2="535.2683" y2="249.1642">
		<stop  offset="0" style="stop-color:#FFFFFF"/>
		<stop  offset="0.1877" style="stop-color:#CBCBCB"/>
		<stop  offset="0.5909" style="stop-color:#5F5F5F"/>
		<stop  offset="0.8701" style="stop-color:#1B1B1B"/>
		<stop  offset="1" style="stop-color:#000000"/>
	</linearGradient>
	<path opacity="0.13" fill="url(#SVGID_12_)" d="M528.6,235.9c-8.9,9.7-17.6,15.4-34.6,15.4c-17,0-25.7-5.7-34.6-15.4l-6.7,6.1
		c10.6,11.5,21.9,20.4,41.3,20.4c19.4,0,30.7-8.8,41.3-20.4L528.6,235.9z"/>
</g>
</svg>
